<svg xmlns="http://www.w3.org/2000/svg" width="1559px" height="477px" viewBox="0 0 1559 477" transform="rotate(0) scale(1, 1)">
<g>
<path d="M 389.98 475.17 C384.06,472.04 383.01,468.56 382.99,452.00 C382.98,444.02 382.64,437.01 382.23,436.40 C381.83,435.80 380.26,435.01 378.75,434.63 C372.62,433.14 376.40,432.00 387.50,432.00 C398.60,432.00 402.38,433.14 396.25,434.63 C394.74,435.01 393.17,435.80 392.77,436.40 C391.86,437.76 391.95,461.60 392.87,464.91 C394.92,472.21 408.99,473.85 412.39,467.18 C414.28,463.46 415.09,453.01 414.23,443.54 C413.56,436.21 413.31,435.54 411.07,435.01 C409.74,434.70 408.46,433.89 408.24,433.22 C407.94,432.32 410.20,432.00 416.92,432.00 C425.95,432.00 429.19,433.41 422.99,434.65 C419.25,435.40 419.14,435.89 418.78,453.00 C418.45,468.63 417.28,471.72 410.46,475.02 C405.04,477.64 394.83,477.72 389.98,475.17 ZM 842.98 474.75 C836.51,471.48 832.91,465.80 832.28,457.87 C831.60,449.25 833.27,443.75 838.20,438.40 C843.47,432.68 850.28,430.50 860.45,431.29 C864.33,431.59 868.74,432.31 870.25,432.89 C872.86,433.90 873.00,434.28 873.00,440.48 C873.00,448.26 870.84,449.55 868.86,442.94 C867.25,437.54 863.55,435.00 857.35,435.00 C847.72,435.01 842.64,441.22 842.61,453.00 C842.59,460.67 845.34,466.58 850.34,469.56 C854.39,471.98 863.22,471.98 867.86,469.57 C870.20,468.36 871.55,468.15 872.27,468.87 C875.25,471.85 863.45,477.00 853.67,477.00 C849.18,477.00 846.18,476.37 842.98,474.75 ZM 1102.69 461.68 C1096.19,453.33 1089.77,445.15 1088.43,443.50 L 1085.98 440.50 L 1086.24 456.46 L 1086.50 472.43 L 1089.75 473.36 C1095.46,474.99 1093.26,476.00 1084.00,476.00 C1075.18,476.00 1072.17,474.78 1077.88,473.53 C1081.54,472.72 1081.97,470.36 1081.99,451.37 C1082.00,436.72 1081.71,435.63 1077.58,434.86 C1076.53,434.66 1075.48,433.94 1075.25,433.25 C1074.94,432.32 1076.94,432.01 1083.17,432.02 L 1091.50 432.04 L 1102.50 446.04 L 1113.50 460.03 L 1113.81 451.77 C1113.98,447.22 1113.85,441.64 1113.52,439.37 C1112.99,435.78 1112.52,435.15 1109.96,434.64 C1103.83,433.42 1107.07,432.00 1116.00,432.00 C1125.19,432.00 1127.74,433.23 1121.75,434.78 L 1118.50 435.63 L 1118.23 456.31 C1117.98,475.18 1117.81,476.99 1116.23,476.93 C1115.23,476.90 1109.54,470.50 1102.69,461.68 ZM 1305.25 476.29 C1303.17,475.89 1303.00,475.32 1303.00,468.93 C1303.00,463.52 1303.32,462.00 1304.46,462.00 C1305.31,462.00 1306.36,463.61 1306.96,465.84 C1308.58,471.88 1312.93,474.74 1317.74,472.91 C1321.14,471.62 1321.97,470.34 1321.98,466.34 C1322.00,462.74 1319.40,460.21 1311.15,455.77 C1304.94,452.43 1302.75,449.28 1302.82,443.81 C1302.96,433.91 1313.63,428.55 1326.25,432.05 L 1330.00 433.09 L 1330.00 439.05 C1330.00,446.17 1327.97,447.19 1326.12,441.02 C1324.78,436.52 1322.66,435.00 1317.77,435.00 C1313.53,435.00 1312.00,436.51 1312.00,440.69 C1312.00,444.18 1312.99,445.04 1324.24,451.40 C1332.00,455.78 1334.23,463.37 1329.73,470.10 C1326.44,475.02 1321.79,477.02 1314.00,476.86 C1310.43,476.79 1306.49,476.53 1305.25,476.29 ZM 1460.75 472.75 C1458.89,470.41 1452.45,462.27 1446.43,454.65 L 1435.50 440.80 L 1435.21 454.65 C1434.86,471.47 1435.10,472.64 1439.00,473.50 C1444.82,474.78 1441.89,476.00 1433.00,476.00 C1424.16,476.00 1421.34,474.89 1426.74,473.53 C1428.25,473.15 1429.82,472.31 1430.22,471.67 C1430.63,471.03 1430.98,462.75 1430.98,453.28 L 1431.00 436.06 L 1427.82 435.23 C1426.07,434.78 1424.46,433.87 1424.23,433.20 C1423.94,432.33 1426.11,432.00 1432.17,432.01 L 1440.50 432.01 L 1451.50 446.04 L 1462.50 460.06 L 1462.79 449.78 C1463.16,436.79 1462.81,435.41 1459.01,434.65 C1452.84,433.42 1456.04,432.00 1465.00,432.00 C1473.86,432.00 1476.86,433.26 1471.25,434.63 C1469.74,435.01 1468.17,435.80 1467.77,436.40 C1467.36,437.01 1467.02,446.39 1467.02,457.25 C1467.00,479.50 1466.70,480.23 1460.75,472.75 ZM 1521.50 475.11 C1513.74,471.53 1510.00,464.94 1510.00,454.85 C1510.00,438.89 1521.64,429.91 1540.46,431.35 C1553.24,432.32 1553.00,432.16 1553.00,439.62 C1553.00,447.30 1550.92,448.35 1548.37,441.96 C1546.40,437.04 1542.83,435.00 1536.20,435.00 C1526.26,435.00 1520.58,442.09 1520.56,454.53 C1520.55,462.67 1522.59,467.13 1527.95,470.75 C1531.29,472.99 1536.94,473.66 1541.75,472.37 C1543.80,471.82 1544.00,471.17 1544.00,465.08 C1544.00,458.17 1542.99,456.00 1539.80,456.00 C1538.81,456.00 1538.00,455.42 1538.00,454.71 C1538.00,453.74 1540.62,453.41 1548.50,453.37 C1556.62,453.34 1559.00,453.63 1559.00,454.66 C1559.00,455.40 1558.44,456.01 1557.75,456.02 C1554.41,456.06 1553.49,458.01 1553.00,466.17 L 1552.50 474.43 L 1546.50 475.67 C1537.39,477.56 1526.26,477.31 1521.50,475.11 ZM 0.00 475.10 C0.00,474.60 1.30,473.74 2.89,473.19 L 5.78 472.18 L 6.39 457.84 C7.12,440.43 6.45,435.81 3.06,435.02 C1.74,434.70 0.46,433.89 0.24,433.22 C-0.07,432.30 3.16,432.00 13.45,432.00 C32.62,432.00 36.17,433.82 36.17,443.64 C36.17,451.81 30.36,456.99 21.21,457.00 L 15.92 457.00 L 16.21 464.75 L 16.50 472.50 L 20.25 473.43 C27.05,475.11 24.18,476.00 12.00,476.00 C5.40,476.00 0.00,475.59 0.00,475.10 ZM 24.60 450.90 C25.85,449.51 26.50,447.32 26.50,444.50 C26.50,439.02 23.96,436.00 19.35,436.00 L 16.00 436.00 L 16.00 444.50 L 16.00 453.00 L 19.35 453.00 C21.48,453.00 23.38,452.24 24.60,450.90 ZM 72.00 475.10 C72.00,474.60 73.36,473.72 75.02,473.14 L 78.05 472.09 L 77.77 453.84 L 77.50 435.59 L 75.07 435.02 C73.74,434.70 72.45,433.86 72.22,433.15 C71.87,432.12 74.87,431.92 86.98,432.18 L 102.17 432.50 L 105.08 435.77 C108.43,439.51 108.84,443.44 106.41,448.54 C105.54,450.38 103.75,452.59 102.43,453.45 L 100.04 455.02 L 104.13 461.76 C109.36,470.38 111.57,472.75 115.13,473.53 C120.81,474.78 117.83,476.00 109.25,475.95 L 100.50 475.89 L 95.79 465.95 C89.74,453.20 88.00,452.77 88.00,464.05 C88.00,472.10 88.00,472.10 91.00,473.15 C96.58,475.10 94.04,476.00 83.00,476.00 C76.95,476.00 72.00,475.59 72.00,475.10 ZM 96.44 449.78 C97.30,448.56 98.00,445.86 98.00,443.78 C98.00,439.12 95.19,436.00 91.00,436.00 L 88.00 436.00 L 88.00 444.00 L 88.00 452.00 L 91.44 452.00 C93.87,452.00 95.35,451.34 96.44,449.78 ZM 150.00 475.14 C150.00,474.67 151.46,473.87 153.25,473.36 L 156.50 472.43 L 156.50 454.03 L 156.50 435.63 L 153.25 434.78 C145.82,432.86 150.53,432.00 168.50,432.00 L 187.00 432.00 L 187.01 435.25 C187.02,437.04 187.30,439.51 187.63,440.75 C188.59,444.33 185.59,443.52 183.93,439.75 C182.51,436.53 182.43,436.50 174.75,436.21 C167.25,435.93 167.00,435.99 166.99,438.21 C166.99,439.47 166.70,442.86 166.35,445.75 L 165.72 451.00 L 171.41 451.00 C176.84,451.00 177.15,450.86 178.15,448.00 C179.95,442.84 181.00,444.69 181.00,453.00 C181.00,461.31 179.95,463.16 178.15,458.00 C177.16,455.15 176.82,455.00 171.55,455.00 L 166.00 455.00 L 166.00 463.50 L 166.00 472.00 L 173.91 472.00 C181.52,472.00 181.92,471.88 184.41,468.92 C185.83,467.23 187.00,465.43 187.00,464.92 C187.00,464.42 187.68,464.00 188.50,464.00 C190.37,464.00 190.37,464.16 188.32,470.66 L 186.63 476.00 L 168.32 476.00 C158.24,476.00 150.00,475.62 150.00,475.14 ZM 225.00 475.08 C225.00,474.57 226.35,473.86 228.00,473.50 C229.94,473.07 231.19,472.07 231.54,470.67 C231.83,469.48 231.94,461.10 231.79,452.06 L 231.50 435.63 L 228.25 434.78 C222.08,433.19 224.74,431.91 233.61,432.21 L 242.22 432.50 L 247.42 444.50 C250.29,451.10 253.35,457.85 254.24,459.50 L 255.84 462.50 L 258.06 457.50 C259.28,454.75 262.22,448.00 264.59,442.50 L 268.91 432.50 L 277.45 432.21 C286.27,431.91 288.90,433.19 282.75,434.78 L 279.50 435.63 L 279.50 454.03 L 279.50 472.43 L 282.75 473.36 C288.89,475.12 285.98,476.00 274.00,476.00 C262.02,476.00 259.10,475.12 265.25,473.36 L 268.50 472.43 L 268.70 457.46 C268.86,445.34 268.67,442.97 267.72,445.00 C267.07,446.38 263.74,453.80 260.32,461.50 C256.89,469.20 253.51,475.62 252.80,475.77 C251.99,475.93 248.58,469.53 243.76,458.77 L 236.02 441.50 L 236.26 456.96 L 236.50 472.43 L 239.75 473.36 C245.46,474.99 243.26,476.00 234.00,476.00 C229.05,476.00 225.00,475.59 225.00,475.08 ZM 319.00 475.14 C319.00,474.67 320.46,473.87 322.25,473.36 L 325.50 472.43 L 325.50 454.03 L 325.50 435.63 L 322.25 434.78 C315.67,433.08 319.07,432.00 331.00,432.00 C342.98,432.00 345.89,432.88 339.75,434.64 L 336.50 435.57 L 336.50 454.00 L 336.50 472.43 L 339.75 473.36 C345.89,475.12 342.98,476.00 331.00,476.00 C324.40,476.00 319.00,475.62 319.00,475.14 ZM 459.00 475.08 C459.00,474.57 460.32,473.87 461.93,473.52 C464.68,472.91 464.89,472.51 465.49,466.69 C465.84,463.28 465.98,454.90 465.81,448.06 L 465.50 435.62 L 462.25 434.78 C456.10,433.19 458.73,431.91 467.52,432.21 L 476.05 432.50 L 481.11 444.00 C483.90,450.33 486.86,457.06 487.70,458.97 L 489.21 462.44 L 490.81 459.47 C491.69,457.84 494.74,451.10 497.59,444.50 L 502.78 432.50 L 511.39 432.21 C520.26,431.91 522.92,433.19 516.75,434.78 L 513.50 435.63 L 513.50 454.03 L 513.50 472.43 L 516.75 473.36 C522.89,475.12 519.98,476.00 508.00,476.00 C496.46,476.00 492.59,474.91 499.07,473.49 C500.75,473.11 502.34,472.27 502.60,471.61 C502.85,470.95 502.93,464.14 502.78,456.49 L 502.50 442.58 L 495.15 459.29 C491.11,468.48 487.24,476.00 486.55,476.00 C485.86,476.00 481.97,468.47 477.90,459.27 L 470.50 442.53 L 470.22 456.47 C470.07,464.13 470.15,470.95 470.40,471.61 C470.66,472.27 472.25,473.11 473.93,473.49 C479.82,474.78 476.93,476.00 468.00,476.00 C463.05,476.00 459.00,475.59 459.00,475.08 ZM 585.00 475.08 C585.00,474.57 586.35,473.86 588.00,473.50 C589.94,473.07 591.19,472.07 591.54,470.67 C591.83,469.48 591.94,461.10 591.79,452.06 L 591.50 435.63 L 588.25 434.78 C582.31,433.25 584.79,432.00 593.75,432.01 L 602.50 432.02 L 605.33 439.26 C606.88,443.24 609.86,450.10 611.95,454.50 L 615.74 462.50 L 619.00 455.50 C620.79,451.65 623.76,444.90 625.59,440.50 L 628.92 432.50 L 637.46 432.21 C646.27,431.91 648.90,433.19 642.75,434.78 L 639.50 435.63 L 639.50 454.03 L 639.50 472.43 L 642.75 473.36 C648.83,475.10 646.02,476.00 634.50,476.00 C627.31,476.00 623.00,475.62 623.00,474.98 C623.00,474.41 624.33,473.68 625.95,473.36 L 628.90 472.77 L 629.20 458.87 C629.36,451.22 629.33,444.47 629.13,443.87 C628.93,443.27 625.49,450.14 621.50,459.14 C617.51,468.14 613.63,475.62 612.87,475.78 C611.96,475.96 608.96,470.29 604.00,458.99 L 596.50 441.93 L 596.22 456.17 C596.07,464.00 596.15,470.95 596.40,471.61 C596.66,472.27 598.25,473.11 599.93,473.49 C605.82,474.78 602.93,476.00 594.00,476.00 C589.05,476.00 585.00,475.59 585.00,475.08 ZM 679.00 475.14 C679.00,474.67 680.46,473.87 682.25,473.36 L 685.50 472.43 L 685.50 454.03 L 685.50 435.63 L 682.25 434.78 C674.82,432.86 679.53,432.00 697.50,432.00 L 716.00 432.00 L 716.00 434.38 C716.00,435.68 716.28,438.16 716.62,439.88 C717.49,444.18 714.84,444.09 712.93,439.75 C711.51,436.53 711.43,436.50 703.75,436.21 L 696.00 435.92 L 696.00 443.46 L 696.00 451.00 L 701.05 451.00 C705.77,451.00 706.17,450.80 707.15,448.00 C709.10,442.41 710.50,444.50 710.50,453.00 C710.50,461.42 709.30,463.29 707.31,458.00 C706.25,455.21 705.82,455.00 701.09,455.00 L 696.00 455.00 L 696.00 463.50 L 696.00 472.00 L 703.51 472.00 C711.41,472.00 710.97,472.21 715.86,466.00 C718.73,462.35 719.35,464.01 717.49,470.39 L 715.86 476.00 L 697.43 476.00 C687.29,476.00 679.00,475.62 679.00,475.14 ZM 754.00 475.08 C754.00,474.57 755.35,473.86 757.00,473.50 C758.94,473.07 760.19,472.07 760.54,470.67 C760.83,469.48 760.94,461.30 760.79,452.50 L 760.50 436.50 L 757.25 435.07 C755.46,434.28 754.00,433.27 754.00,432.82 C754.00,431.60 780.20,431.83 783.78,433.07 C788.42,434.69 790.32,438.28 789.74,444.33 C789.35,448.44 788.65,449.92 786.02,452.28 L 782.78 455.17 L 784.56 458.48 C789.30,467.28 793.54,472.42 796.75,473.23 C802.60,474.72 800.23,476.00 791.62,476.00 L 783.25 476.00 L 778.45 466.00 C774.91,458.61 773.17,456.00 771.79,456.00 C770.09,456.00 769.95,456.76 770.21,464.22 L 770.50 472.43 L 773.75 473.36 C779.83,475.10 777.02,476.00 765.50,476.00 C759.16,476.00 754.00,475.59 754.00,475.08 ZM 778.57 449.92 C779.73,448.64 780.45,446.36 780.45,444.00 C780.45,439.00 777.79,436.00 773.35,436.00 L 770.00 436.00 L 770.00 444.00 L 770.00 452.00 L 773.35 452.00 C775.46,452.00 777.38,451.24 778.57,449.92 ZM 910.00 475.14 C910.00,474.67 911.46,473.87 913.25,473.36 L 916.50 472.43 L 916.50 454.03 L 916.50 435.63 L 913.25 434.78 C906.75,433.10 910.04,432.00 921.58,432.00 C930.41,432.00 933.07,432.30 932.75,433.25 C932.52,433.94 931.47,434.65 930.42,434.83 C927.22,435.39 926.00,438.07 926.00,444.56 L 926.00 450.75 L 930.75 451.19 C933.36,451.43 937.41,451.44 939.75,451.21 L 944.00 450.79 L 944.00 445.46 C944.00,438.61 942.70,435.24 939.88,434.83 C938.66,434.65 937.47,433.94 937.24,433.25 C936.93,432.30 939.60,432.00 948.42,432.00 C959.96,432.00 963.25,433.10 956.75,434.78 L 953.50 435.63 L 953.50 454.03 L 953.50 472.43 L 956.75 473.36 C962.83,475.10 960.02,476.00 948.50,476.00 C941.31,476.00 937.00,475.62 937.00,474.98 C937.00,474.41 938.32,473.69 939.93,473.36 C942.70,472.81 942.90,472.43 943.53,466.59 C944.73,455.37 944.83,455.50 935.00,455.50 L 926.50 455.50 L 926.19 461.00 C925.68,469.86 926.57,472.75 930.03,473.51 C936.33,474.89 932.52,476.00 921.50,476.00 C915.17,476.00 910.00,475.62 910.00,475.14 ZM 993.00 475.07 C993.00,474.55 993.90,473.85 995.00,473.50 C997.50,472.71 997.64,472.45 1007.60,450.00 C1012.71,438.49 1016.41,431.38 1017.41,431.18 C1018.28,431.00 1019.00,431.29 1019.00,431.81 C1019.00,432.34 1022.91,441.65 1027.69,452.51 C1035.30,469.78 1036.73,472.36 1039.19,473.22 C1044.58,475.10 1041.92,476.00 1031.00,476.00 C1024.33,476.00 1020.00,475.61 1020.00,475.00 C1020.00,474.45 1020.56,473.99 1021.25,473.98 C1021.94,473.98 1023.14,473.57 1023.92,473.07 C1025.13,472.30 1025.08,471.50 1023.59,467.59 L 1021.83 463.00 L 1014.01 463.00 L 1006.19 463.00 L 1004.59 467.69 C1002.96,472.48 1003.46,473.94 1006.75,473.98 C1007.44,473.99 1008.00,474.45 1008.00,475.00 C1008.00,475.58 1004.83,476.00 1000.50,476.00 C996.38,476.00 993.00,475.58 993.00,475.07 ZM 1019.51 457.25 C1019.12,456.29 1017.88,453.12 1016.75,450.21 C1015.61,447.29 1014.38,445.27 1014.01,445.71 C1013.64,446.14 1012.15,449.31 1010.70,452.75 L 1008.06 459.00 L 1014.14 459.00 C1019.53,459.00 1020.13,458.80 1019.51,457.25 ZM 1158.00 475.14 C1158.00,474.67 1159.46,473.87 1161.25,473.36 C1163.71,472.65 1164.65,471.71 1165.13,469.46 C1165.98,465.47 1166.02,445.58 1165.18,440.06 C1164.57,436.11 1164.14,435.53 1161.25,434.78 C1153.89,432.88 1158.49,432.00 1175.79,432.00 C1192.25,432.00 1193.91,432.17 1198.04,434.25 C1208.95,439.75 1210.26,456.74 1200.61,467.70 C1194.18,475.01 1191.08,475.95 1173.25,475.98 C1164.86,475.99 1158.00,475.62 1158.00,475.14 ZM 1188.00 471.25 C1193.26,468.62 1196.00,462.44 1196.00,453.19 C1196.00,439.61 1190.22,433.79 1178.60,435.68 L 1175.00 436.26 L 1175.00 454.05 C1175.00,467.34 1175.32,471.96 1176.25,472.34 C1178.97,473.44 1184.68,472.91 1188.00,471.25 ZM 1243.00 475.11 C1243.00,474.62 1244.23,473.91 1245.74,473.53 C1247.25,473.15 1248.82,472.31 1249.22,471.67 C1249.63,471.03 1249.98,463.02 1249.98,453.87 C1250.00,436.58 1249.78,435.64 1245.58,434.86 C1244.53,434.66 1243.48,433.94 1243.25,433.25 C1242.93,432.30 1245.59,432.00 1254.42,432.00 C1261.66,432.00 1266.00,432.38 1266.00,433.02 C1266.00,433.59 1264.64,434.32 1262.99,434.65 C1261.04,435.04 1259.79,436.00 1259.45,437.38 C1259.16,438.54 1259.06,446.91 1259.21,455.96 L 1259.50 472.43 L 1262.75 473.36 C1268.83,475.10 1266.02,476.00 1254.50,476.00 C1248.18,476.00 1243.00,475.60 1243.00,475.11 ZM 1367.00 475.14 C1367.00,474.67 1368.46,473.87 1370.25,473.36 L 1373.50 472.43 L 1373.50 454.03 L 1373.50 435.63 L 1370.25 434.78 C1363.67,433.08 1367.07,432.00 1379.00,432.00 C1390.98,432.00 1393.89,432.88 1387.75,434.64 L 1384.50 435.57 L 1384.50 454.00 L 1384.50 472.43 L 1387.75 473.36 C1393.89,475.12 1390.98,476.00 1379.00,476.00 C1372.40,476.00 1367.00,475.62 1367.00,475.14 ZM 61.00 340.45 C26.83,333.11 2.74,304.93 0.34,269.50 C-1.30,245.27 9.04,220.82 28.29,203.39 C34.16,198.08 47.08,189.38 54.30,185.88 C58.17,184.01 59.01,183.15 58.60,181.53 C55.53,169.25 55.47,150.90 58.45,139.50 C63.35,120.76 75.29,105.90 92.07,97.61 C105.07,91.19 112.94,89.69 130.50,90.29 C155.33,91.15 171.52,97.35 185.48,111.37 C207.52,133.52 213.35,163.82 209.61,236.70 C206.63,294.55 207.78,309.38 216.22,321.77 C218.60,325.27 221.07,327.02 229.77,331.39 L 240.42 336.73 L 222.46 337.44 C202.76,338.22 197.34,337.55 190.33,333.45 C182.71,328.99 176.01,319.16 172.99,308.00 C172.32,305.52 171.61,302.92 171.41,302.22 C170.82,300.18 165.12,303.58 148.54,315.84 C132.60,327.62 125.44,331.61 112.08,336.13 C95.02,341.92 75.52,343.56 61.00,340.45 ZM 113.50 329.50 C130.40,324.65 148.55,314.36 164.17,300.77 L 170.02 295.69 L 169.76 235.59 L 169.50 175.50 L 162.50 173.73 C121.08,163.27 74.02,178.89 51.38,210.61 C45.84,218.38 39.78,231.35 37.41,240.50 C34.56,251.52 35.00,271.58 38.38,284.45 C45.31,310.90 59.41,326.82 80.06,331.51 C88.99,333.54 102.18,332.75 113.50,329.50 ZM 75.29 177.44 C95.81,170.28 111.21,167.79 134.00,167.94 C143.95,168.00 153.22,168.68 159.88,169.83 L 170.27 171.63 L 169.70 158.56 C167.90,117.49 149.99,94.82 119.33,94.82 C103.22,94.82 91.15,99.87 79.41,111.54 C66.37,124.49 59.21,143.14 60.27,161.38 C60.72,169.11 63.40,181.00 64.69,181.00 C64.91,181.00 69.68,179.40 75.29,177.44 ZM 1408.50 340.93 C1354.35,333.46 1318.39,293.62 1313.01,235.13 C1310.13,203.80 1318.59,169.88 1335.72,144.11 C1355.25,114.74 1385.21,95.89 1421.00,90.45 C1433.39,88.57 1456.39,88.59 1467.29,90.49 C1514.57,98.74 1546.12,130.33 1556.67,180.00 C1559.39,192.79 1559.13,220.92 1556.18,234.69 C1544.27,290.11 1506.60,328.61 1454.04,339.09 C1442.77,341.34 1418.57,342.32 1408.50,340.93 ZM 1451.00 332.96 C1487.36,327.22 1510.73,301.40 1520.64,256.00 C1522.16,249.04 1522.50,243.16 1522.50,223.50 C1522.50,196.31 1521.12,186.80 1514.01,164.98 C1508.16,147.04 1497.45,126.91 1493.00,125.50 C1491.75,125.10 1491.00,123.99 1491.00,122.51 C1491.00,118.77 1479.13,108.76 1468.50,103.53 C1450.22,94.54 1433.14,93.76 1412.18,100.96 C1386.13,109.89 1364.67,132.08 1355.42,159.66 C1348.74,179.54 1346.25,210.02 1349.38,233.61 C1354.02,268.66 1364.78,293.75 1383.00,312.03 C1392.80,321.87 1400.45,326.79 1411.54,330.39 C1421.90,333.75 1438.96,334.86 1451.00,332.96 ZM 369.50 339.89 C352.62,337.46 338.79,330.86 327.90,320.04 C315.65,307.87 310.76,295.10 310.85,275.50 C310.98,248.30 322.70,229.62 351.00,211.52 C354.58,209.24 365.16,203.04 374.51,197.76 C409.09,178.24 420.74,167.38 427.75,148.12 C430.75,139.89 431.14,128.48 428.62,122.55 C424.81,113.61 416.24,106.76 407.16,105.40 C399.68,104.28 395.45,106.31 385.99,115.57 C376.45,124.90 371.84,127.42 366.20,126.40 C351.07,123.67 346.85,109.34 357.82,98.01 C363.39,92.26 368.16,90.62 379.00,90.71 C401.15,90.90 426.48,105.45 432.92,121.67 C434.70,126.16 434.45,140.94 432.48,147.72 C428.26,162.24 418.35,176.55 398.08,197.45 C369.31,227.08 362.36,235.51 355.48,249.09 C346.94,265.94 346.80,283.15 355.05,300.89 C370.70,334.51 401.46,342.84 435.28,322.62 C443.67,317.60 454.68,307.65 460.84,299.52 L 465.50 293.37 L 464.89 281.43 C464.56,274.87 464.76,258.25 465.34,244.50 C465.93,230.75 466.39,206.45 466.37,190.50 C466.35,165.35 466.06,159.97 464.23,149.98 C461.58,135.58 457.94,123.85 452.87,113.41 C448.41,104.22 447.50,103.09 439.07,96.48 C435.72,93.84 433.18,91.49 433.42,91.24 C433.67,91.00 437.16,91.35 441.18,92.02 C460.35,95.21 478.19,105.50 488.62,119.37 C494.16,126.74 496.72,131.67 501.13,143.50 L 504.49 152.50 L 505.00 199.33 L 505.50 246.16 L 538.50 206.83 L 571.50 167.50 L 572.18 148.50 C572.91,128.07 572.10,118.27 569.10,111.48 C566.05,104.60 560.27,99.03 552.48,95.47 C548.62,93.70 544.85,91.53 544.11,90.63 C542.86,89.13 545.45,89.00 576.86,89.00 L 610.96 89.00 L 611.23 108.75 L 611.50 128.50 L 616.50 123.86 C631.78,109.68 652.22,97.53 669.50,92.37 C677.32,90.03 680.33,89.67 692.50,89.61 C704.08,89.55 707.95,89.93 714.88,91.81 C729.24,95.70 737.30,100.31 747.63,110.54 C755.66,118.49 757.37,120.84 761.84,130.04 C767.59,141.87 771.14,154.46 773.60,171.70 C775.48,184.88 775.84,211.34 775.00,273.00 L 774.50 309.50 L 777.93 315.82 C783.02,325.22 787.47,329.62 795.07,332.79 C798.69,334.29 802.74,336.28 804.07,337.21 C806.36,338.80 803.65,338.90 755.75,338.95 C727.84,338.98 705.00,338.75 705.00,338.44 C705.00,338.12 708.78,336.12 713.41,333.99 C723.15,329.48 727.99,325.57 731.79,319.11 L 734.50 314.50 L 734.54 288.50 C734.56,274.20 735.19,247.65 735.94,229.50 C738.69,162.54 732.96,130.69 714.98,112.95 C703.90,102.02 694.43,98.46 678.57,99.27 C671.96,99.61 666.44,100.52 662.50,101.92 C628.50,114.04 591.49,148.27 531.01,223.50 C474.64,293.62 453.16,316.27 429.50,330.47 C415.55,338.84 390.03,342.85 369.50,339.89 ZM 497.84 337.04 C488.09,334.44 482.77,331.53 477.55,325.95 C473.34,321.45 468.03,312.23 468.01,309.37 C468.00,308.56 500.64,267.29 504.63,263.06 C504.86,262.82 504.98,272.78 504.90,285.20 C504.75,307.44 504.79,307.86 507.31,313.36 C512.33,324.33 515.30,327.57 524.27,331.87 C538.88,338.88 538.85,338.94 520.50,338.88 C508.49,338.83 502.84,338.38 497.84,337.04 ZM 544.50 337.39 C545.60,336.53 549.42,334.34 553.00,332.50 C560.63,328.59 567.08,322.30 569.92,316.00 C571.90,311.63 571.96,309.66 571.98,247.49 L 572.00 183.48 L 591.50 164.00 L 611.00 144.52 L 611.00 226.08 C611.00,318.59 610.68,314.54 618.66,323.07 C622.64,327.33 633.19,333.65 639.25,335.43 C640.21,335.71 641.00,336.63 641.00,337.47 C641.00,338.82 635.32,339.00 591.75,338.97 C547.07,338.94 542.69,338.79 544.50,337.39 ZM 1002.00 336.26 L 995.50 335.91 L 992.16 325.45 C984.62,301.85 970.55,278.13 939.41,236.50 C911.15,198.71 905.83,190.71 896.09,171.23 C889.61,158.24 886.65,150.53 881.99,134.36 C875.54,111.98 866.80,98.89 854.44,93.05 C850.90,91.37 848.00,89.78 848.00,89.50 C848.00,89.23 864.67,89.00 885.05,89.00 L 922.10 89.00 L 919.62 92.25 C918.25,94.04 916.63,96.83 916.02,98.45 C911.90,109.28 918.86,138.65 931.42,163.46 C939.96,180.32 949.16,193.95 975.97,229.43 C1009.37,273.65 1019.18,289.12 1027.52,310.75 C1029.06,314.74 1030.64,318.00 1031.04,318.00 C1031.90,318.00 1043.85,285.08 1063.35,229.00 C1088.97,155.28 1099.96,126.84 1115.91,93.00 C1138.63,44.79 1160.71,11.92 1175.93,3.64 C1182.01,0.33 1189.75,-0.69 1196.00,1.00 C1204.84,3.39 1213.00,14.90 1213.00,25.00 C1213.00,29.67 1210.14,37.40 1207.01,41.19 C1200.32,49.27 1185.26,51.32 1176.60,45.33 C1170.91,41.40 1166.97,33.34 1166.74,25.17 C1166.65,21.78 1166.26,19.00 1165.89,19.00 C1164.58,19.00 1154.80,30.39 1150.06,37.43 C1134.89,59.97 1128.06,73.09 1112.50,109.56 C1094.23,152.38 1080.24,189.96 1046.99,285.50 C1040.48,304.20 1033.73,323.44 1031.98,328.25 L 1028.81 337.00 L 1018.66 336.80 C1013.07,336.70 1005.58,336.45 1002.00,336.26 ZM 1144.31 335.56 C1145.31,334.81 1150.12,331.79 1155.01,328.85 C1164.47,323.15 1166.37,320.86 1169.34,311.50 C1172.84,300.50 1174.00,262.11 1172.00,223.50 C1169.80,181.13 1169.14,151.12 1170.04,134.50 L 1170.95 117.50 L 1168.03 111.50 C1166.42,108.20 1162.87,103.30 1160.13,100.62 C1156.07,96.63 1153.47,95.14 1145.83,92.43 L 1136.50 89.12 L 1173.25 89.06 L 1210.00 89.00 L 1210.02 199.75 C1210.05,325.48 1209.25,314.01 1218.66,324.07 C1224.34,330.14 1229.94,333.56 1235.74,334.49 C1247.80,336.43 1237.75,337.00 1191.81,336.97 C1149.79,336.94 1142.77,336.73 1144.31,335.56 Z" fill="#cccccc"/>
</g>
</svg>